<svg width="35" height="34" viewBox="0 0 35 34" fill="none" xmlns="http://www.w3.org/2000/svg">
<path fill-rule="evenodd" clip-rule="evenodd" d="M25.7659 0.730982C22.9064 0.193417 19.9988 -0.0516052 17.0888 -0.000206921C14.1786 -0.0516512 11.2708 0.193371 8.41107 0.730982C6.52369 1.1299 4.79366 2.06381 3.43105 3.41932C2.06844 4.77484 1.13187 6.49364 0.735052 8.36702C-0.244855 14.0812 -0.244855 19.9184 0.735052 25.6326C1.13187 27.506 2.06844 29.2248 3.43105 30.5803C4.79366 31.9358 6.52369 32.8697 8.41107 33.2686C11.2699 33.8062 14.1768 34.0512 17.0861 33.9998C19.9961 34.0513 22.9037 33.8063 25.7632 33.2686C27.6505 32.8697 29.3806 31.9358 30.7432 30.5803C32.1058 29.2248 33.0424 27.506 33.4392 25.6326C34.4194 19.9185 34.4194 14.0811 33.4392 8.36702C33.0426 6.49399 32.1064 4.77544 30.7443 3.41996C29.3822 2.06448 27.6528 1.13037 25.7659 0.730982Z" fill="#1070CA"/>
<path d="M17.2201 26.9239C16.2863 26.7945 15.3635 26.5965 14.4593 26.3317C10.9959 25.0419 8.9999 22.5087 8.76504 18.8675C8.57349 15.8952 8.72646 12.9007 8.72646 9.85644H17.2201V26.9239Z" fill="white"/>
<path d="M27.1778 14.0246C27.1777 14.8594 26.9287 15.6755 26.462 16.3702C25.9953 17.0649 25.3318 17.607 24.5552 17.9284C23.7785 18.2497 22.9233 18.3359 22.0974 18.1761C21.2714 18.0163 20.5116 17.6176 19.9136 17.0303C19.3156 16.4429 18.9061 15.6932 18.7368 14.8755C18.5675 14.0577 18.6459 13.2086 18.9621 12.435C19.2783 11.6614 19.8182 10.9979 20.5138 10.528C21.2094 10.0582 22.0296 9.80302 22.871 9.79467C23.4348 9.78836 23.9942 9.89315 24.5168 10.103C25.0394 10.3128 25.5148 10.6234 25.9154 11.0169C26.316 11.4104 26.6339 11.8789 26.8506 12.3952C27.0673 12.9115 27.1785 13.4653 27.1778 14.0246Z" fill="white"/>
</svg>
